HIERARCHY
ROOT joint_Root
{
	OFFSET 0.0 0.0 0.0
	CHANNELS 6 Xposition Yposition Zposition Zrotation Xrotation Yrotation 
	JOINT Hips
	{
		OFFSET 4.5925 91.4895 -427.239
		CHANNELS 6 Xposition Yposition Zposition Zrotation Xrotation Yrotation 
		JOINT Spine
		{
			OFFSET 15.7357 0.0 0.0
			CHANNELS 6 Xposition Yposition Zposition Zrotation Xrotation Yrotation 
			JOINT Chest
			{
				OFFSET 8.98455 -0.406207 0.0
				CHANNELS 6 Xposition Yposition Zposition Zrotation Xrotation Yrotation 
				JOINT Neck
				{
					OFFSET 16.3773 0.0 0.0
					CHANNELS 6 Xposition Yposition Zposition Zrotation Xrotation Yrotation 
					JOINT Head
					{
						OFFSET 6.45672 0.0 0.0
						CHANNELS 6 Xposition Yposition Zposition Zrotation Xrotation Yrotation 
						End Site
						{
							OFFSET 0.0 0.0 0.0
						}
					}
				}
				JOINT Shoulder_L
				{
					OFFSET 12.9942 -0.242716 4.98039
					CHANNELS 6 Xposition Yposition Zposition Zrotation Xrotation Yrotation 
					JOINT UpperArm_L
					{
						OFFSET 5.34809 0.0 0.0
						CHANNELS 6 Xposition Yposition Zposition Zrotation Xrotation Yrotation 
						JOINT LowerArm_L
						{
							OFFSET 24.3286 1.87007e-05 0.0
							CHANNELS 6 Xposition Yposition Zposition Zrotation Xrotation Yrotation 
							JOINT Hand_L
							{
								OFFSET 22.2916 0.0 0.0
								CHANNELS 6 Xposition Yposition Zposition Zrotation Xrotation Yrotation 
								End Site
								{
									OFFSET 0.0 0.0 0.0
								}
							}
						}
					}
				}
				JOINT Shoulder_R
				{
					OFFSET 12.9945 -0.242716 -4.98039
					CHANNELS 6 Xposition Yposition Zposition Zrotation Xrotation Yrotation 
					JOINT UpperArm_R
					{
						OFFSET -5.34813 0.0 0.0
						CHANNELS 6 Xposition Yposition Zposition Zrotation Xrotation Yrotation 
						JOINT LowerArm_R
						{
							OFFSET -24.3289 0.000322201 0.0
							CHANNELS 6 Xposition Yposition Zposition Zrotation Xrotation Yrotation 
							JOINT Hand_R
							{
								OFFSET -22.2915 -0.000108084 0.0
								CHANNELS 6 Xposition Yposition Zposition Zrotation Xrotation Yrotation 
								End Site
								{
									OFFSET 0.0 0.0 0.0
								}
							}
						}
					}
				}
			}
		}
		JOINT UpperLeg_L
		{
			OFFSET -2.19248 -6.46944 0.0
			CHANNELS 6 Xposition Yposition Zposition Zrotation Xrotation Yrotation 
			JOINT LowerLeg_L
			{
				OFFSET 39.0811 0.0 -1.23785e-05
				CHANNELS 6 Xposition Yposition Zposition Zrotation Xrotation Yrotation 
				JOINT Foot_L
				{
					OFFSET 40.9854 0.0 -1.26872e-05
					CHANNELS 6 Xposition Yposition Zposition Zrotation Xrotation Yrotation 
					JOINT Toes_L
					{
						OFFSET 11.7543 0.0 0.0
						CHANNELS 6 Xposition Yposition Zposition Zrotation Xrotation Yrotation 
						End Site
						{
							OFFSET 0.0 0.0 0.0
						}
					}
				}
			}
		}
		JOINT UpperLeg_R
		{
			OFFSET -2.19251 6.46944 0.0
			CHANNELS 6 Xposition Yposition Zposition Zrotation Xrotation Yrotation 
			JOINT LowerLeg_R
			{
				OFFSET -39.0811 -0.00228153 -0.0401928
				CHANNELS 6 Xposition Yposition Zposition Zrotation Xrotation Yrotation 
				JOINT Foot_R
				{
					OFFSET -40.9854 0.0 0.0
					CHANNELS 6 Xposition Yposition Zposition Zrotation Xrotation Yrotation 
					JOINT Toes_R
					{
						OFFSET -11.7543 0.0 0.0
						CHANNELS 6 Xposition Yposition Zposition Zrotation Xrotation Yrotation 
						End Site
						{
							OFFSET 0.0 0.0 0.0
						}
					}
				}
			}
		}
	}
}
MOTION
Frames:	4
Frame Time:	0.0333333
0.000000 0.000000 0.000000 0.000000 0.000000 -0.000000 -1.961240 91.816600 -0.114268 88.949000 -2.478100 1.841810 15.735700 0.000005 -0.000001 84.327600 87.468700 -84.386600 8.984550 -0.406207 -0.000000 -2.728440 -0.494813 -0.129833 16.377300 -0.000001 -0.000001 3.788900 -3.789880 2.424930 6.456720 -0.000001 -0.000000 2.290470 -3.670290 -0.480666 12.994200 -0.242716 4.980390 -85.641900 -8.879030 -63.721900 5.348090 -0.000007 -0.000001 -66.980200 -51.278900 -104.354000 24.328600 0.000019 0.000005 18.929900 11.486900 -59.857800 22.291600 -0.000001 0.000005 23.536500 5.231060 1.927960 12.994500 -0.242716 -4.980390 93.328000 -8.532250 -68.598100 -5.348130 -0.000001 -0.000004 -59.719800 -51.314900 -101.601000 -24.328900 0.000322 -0.000009 1.887340 1.142500 -58.839900 -22.291500 -0.000108 -0.000004 24.890900 5.504850 -6.730130 -2.192480 -6.469440 -0.000000 -174.468000 -12.955600 -5.126760 39.081100 -0.000007 -0.000012 -0.166748 0.362305 24.714100 40.985400 -0.000006 -0.000013 -1.100540 6.678090 -67.351400 11.754300 -0.000000 0.000003 -0.000139 -0.001358 -16.629300 -2.192510 6.469440 -0.000001 177.650000 23.986000 176.201000 -39.081100 -0.002282 -0.040193 -0.042242 0.102601 23.941700 -40.985400 0.000008 0.000006 7.716980 19.067400 -69.869100 -11.754300 -0.000006 -0.000006 -0.001658 -0.024355 -17.563400
0.000000 0.000000 0.000000 0.000000 0.000000 -0.000000 -1.931450 91.829400 -0.092772 88.930300 -2.496710 1.780550 15.735700 0.000005 -0.000001 84.536100 87.441900 -84.617400 8.984550 -0.406207 -0.000000 -2.673410 -0.479588 -0.173735 16.377300 -0.000001 -0.000001 3.706320 -3.780360 2.422500 6.456720 -0.000001 -0.000000 2.220990 -3.633960 -0.462602 12.994200 -0.242716 4.980390 -85.705600 -8.763010 -63.761200 5.348090 -0.000007 -0.000001 -66.538000 -51.314600 -103.918000 24.328600 0.000019 0.000005 18.887500 11.354000 -60.082900 22.291600 -0.000001 0.000005 23.522500 5.234780 1.831530 12.994500 -0.242716 -4.980390 93.276500 -8.412810 -68.629800 -5.348130 -0.000001 -0.000004 -59.165200 -51.340900 -100.848000 -24.328900 0.000322 -0.000009 2.050950 1.221660 -59.248400 -22.291500 -0.000108 -0.000004 24.677200 5.496070 -6.375690 -2.192480 -6.469440 -0.000000 -174.465000 -13.140100 -5.128520 39.081100 -0.000007 -0.000012 -0.165788 0.361436 24.640800 40.985400 -0.000006 -0.000013 -1.050270 6.818530 -67.333000 11.754300 -0.000000 0.000003 -0.000135 -0.001331 -16.628300 -2.192510 6.469440 -0.000001 177.643000 24.216300 176.211000 -39.081100 -0.002282 -0.040193 -0.040243 0.098517 23.851300 -40.985400 0.000008 0.000006 7.891690 19.272800 -69.915800 -11.754300 -0.000006 -0.000006 -0.001576 -0.023271 -17.519400
0.000000 0.000000 0.000000 0.000000 0.000000 -0.000000 -1.887380 91.839800 -0.080458 88.901700 -2.556510 1.635700 15.735700 0.000005 -0.000001 84.764400 87.435600 -84.869600 8.984550 -0.406207 -0.000000 -2.659080 -0.458283 -0.220938 16.377300 -0.000001 -0.000001 3.580010 -3.759250 2.419470 6.456720 -0.000001 -0.000000 2.115060 -3.602920 -0.390722 12.994200 -0.242716 4.980390 -85.772000 -8.621990 -63.750800 5.348090 -0.000007 -0.000001 -66.072400 -51.186500 -103.193000 24.328600 0.000019 0.000005 18.799800 11.020700 -60.683900 22.291600 -0.000001 0.000005 23.625800 5.230620 1.939400 12.994500 -0.242716 -4.980390 93.202300 -8.232320 -68.657400 -5.348130 -0.000001 -0.000004 -58.333100 -51.186700 -99.581600 -24.328900 0.000322 -0.000009 2.247890 1.294800 -60.086900 -22.291500 -0.000108 -0.000004 24.480800 5.482010 -5.825590 -2.192480 -6.469440 -0.000000 -174.483000 -13.276400 -5.245880 39.081100 -0.000007 -0.000012 -0.166091 0.362731 24.602800 40.985400 -0.000006 -0.000013 -1.007810 6.896510 -67.322400 11.754300 -0.000000 0.000003 -0.000169 -0.001607 -16.638500 -2.192510 6.469440 -0.000001 177.706000 24.253800 176.095000 -39.081100 -0.002282 -0.040193 -0.037154 0.091886 23.769500 -40.985400 0.000008 0.000006 7.922140 19.365300 -69.890400 -11.754300 -0.000006 -0.000006 -0.001544 -0.022850 -17.502200
0.000000 0.000000 0.000000 0.000000 0.000000 -0.000000 -1.846690 91.854200 -0.071222 88.920500 -2.569530 1.572890 15.735700 0.000005 -0.000001 84.817700 87.400700 -84.953100 8.984550 -0.406207 -0.000000 -2.589230 -0.457172 -0.281134 16.377300 -0.000001 -0.000001 3.448800 -3.759190 2.468350 6.456720 -0.000001 -0.000000 1.953940 -3.595510 -0.391454 12.994200 -0.242716 4.980390 -85.859900 -8.459570 -63.801200 5.348090 -0.000007 -0.000001 -65.373100 -50.872000 -101.688000 24.328600 0.000019 0.000005 18.384600 10.148900 -62.068800 22.291600 -0.000001 0.000005 23.600700 5.228840 1.985510 12.994500 -0.242716 -4.980390 93.080500 -7.912470 -68.647200 -5.348130 -0.000001 -0.000004 -57.078600 -50.723500 -97.593200 -24.328900 0.000322 -0.000009 2.202960 1.185030 -61.751900 -22.291500 -0.000108 -0.000004 23.959600 5.459310 -4.974660 -2.192480 -6.469440 -0.000000 -174.550000 -13.347600 -5.247220 39.081100 -0.000007 -0.000012 -0.163715 0.359208 24.502200 40.985400 -0.000006 -0.000013 -0.975311 6.898450 -67.288700 11.754300 -0.000000 0.000003 -0.000161 -0.001541 -16.636000 -2.192510 6.469440 -0.000001 177.699000 24.259200 176.056000 -39.081100 -0.002282 -0.040193 -0.031528 0.079326 23.712500 -40.985400 0.000008 0.000006 8.071100 19.361900 -69.921700 -11.754300 -0.000006 -0.000006 -0.001519 -0.022530 -17.489200
